# xmcd
#
# Track frame offsets: 
#        187
#        10655
#        23410
#        34752
#        46730
#        59477
#        71470
#        81990
#        93767
#        103427
#        115012
#        126862
#        138385
#        150742
#        162152
#        172045
#        182315
#        195682
#        208375
#        220295
#
# Disc length: 3106 seconds
#
# Revision: 3
# Processed by: cddbd v1.5.2PL0 Copyright (c) Steve Scherf et al.
# Submitted via: ExactAudioCopy v0.99pb5
#
DISCID=100c2014
DTITLE=Various Artist - Country Classics Disc 1
DYEAR=1992
DGENRE=Country
TTITLE0=Everly Brothers - Bye Bye Love
TTITLE1=Bobby Bare - Detroit City
TTITLE2=Don Gibson - Oh Lonesome Me
TTITLE3=Willie Nelson - Funny How Time Slips Away
TTITLE4=Patsy Cline - I Fall To Pieces
TTITLE5=Eddy Arnold - Make The World Go Away
TTITLE6=Statler Brothers - Flowers On The Wall
TTITLE7=Tennessee Ernie Ford - Sixteen Tons
TTITLE8=Ned Miller - From A Jack To A King
TTITLE9=Jack Greene - There Goes My Everything
TTITLE10=Skeeter Davis - The End Of The World
TTITLE11=Ray Price - Crazy Arms
TTITLE12=Johnny Cash - I Walk The Line
TTITLE13=Johnny Horton - The Battle Of New Orleans
TTITLE14=George Hamilton IV - Abilene
TTITLE15=Jimmie Rodgers - Honeycomb
TTITLE16=David Houston - Almost Persuaded
TTITLE17=George Jones - She Thinks I Still Care
TTITLE18=Brenda Lee - I'm Sorry
TTITLE19=Browns - The Three Bells
EXTD=
EXTT0=Everly Brothers
EXTT1=Bobby Bare
EXTT2=Don Gibson
EXTT3=Willie Nelson
EXTT4=Patsy Cline
EXTT5=Eddy Arnold
EXTT6=Statler Brothers
EXTT7=Tennessee Ernie Ford
EXTT8=Ned Miller
EXTT9=Jack Greene
EXTT10=Skeeter Davis
EXTT11=Ray Price
EXTT12=Jonny Cash
EXTT13=Johnny Horton
EXTT14=George Hamilton IV
EXTT15=Jimmie Rogers
EXTT16=David houston
EXTT17=George jones
EXTT18=Brenda Lee
EXTT19=The Browns
PLAYORDER=
